<mxfile host="app.diagrams.net" modified="2021-07-22T06:33:04.368Z" agent="5.0 (Windows NT 10.0; Win64; x64) AppleWebKit/537.36 (KHTML, like Gecko) Chrome/91.0.4472.164 Safari/537.36" etag="SFxLxHPeJj5_VFat6gMB" version="14.9.0" type="github">
  <diagram id="y5HlpPZMZLjtlvICjRYw" name="Page-1">
    <mxGraphModel dx="1422" dy="762" grid="1" gridSize="10" guides="1" tooltips="1" connect="1" arrows="1" fold="1" page="1" pageScale="1" pageWidth="827" pageHeight="1169" math="0" shadow="0">
      <root>
        <mxCell id="0" />
        <mxCell id="1" parent="0" />
        <mxCell id="vTKfl69OnQjGCs4uk_6M-6" style="edgeStyle=orthogonalEdgeStyle;rounded=0;orthogonalLoop=1;jettySize=auto;html=1;entryX=0.5;entryY=0;entryDx=0;entryDy=0;" edge="1" parent="1" source="vTKfl69OnQjGCs4uk_6M-1" target="vTKfl69OnQjGCs4uk_6M-2">
          <mxGeometry relative="1" as="geometry" />
        </mxCell>
        <mxCell id="vTKfl69OnQjGCs4uk_6M-1" value="新增" style="rounded=0;whiteSpace=wrap;html=1;" vertex="1" parent="1">
          <mxGeometry x="300" y="80" width="120" height="60" as="geometry" />
        </mxCell>
        <mxCell id="vTKfl69OnQjGCs4uk_6M-7" style="edgeStyle=orthogonalEdgeStyle;rounded=0;orthogonalLoop=1;jettySize=auto;html=1;entryX=0.5;entryY=0;entryDx=0;entryDy=0;" edge="1" parent="1" source="vTKfl69OnQjGCs4uk_6M-2" target="vTKfl69OnQjGCs4uk_6M-3">
          <mxGeometry relative="1" as="geometry" />
        </mxCell>
        <mxCell id="vTKfl69OnQjGCs4uk_6M-14" style="edgeStyle=orthogonalEdgeStyle;rounded=0;orthogonalLoop=1;jettySize=auto;html=1;entryX=0;entryY=0.5;entryDx=0;entryDy=0;dashed=1;" edge="1" parent="1" source="vTKfl69OnQjGCs4uk_6M-2" target="vTKfl69OnQjGCs4uk_6M-11">
          <mxGeometry relative="1" as="geometry" />
        </mxCell>
        <mxCell id="vTKfl69OnQjGCs4uk_6M-2" value="一审" style="rounded=0;whiteSpace=wrap;html=1;" vertex="1" parent="1">
          <mxGeometry x="300" y="200" width="120" height="60" as="geometry" />
        </mxCell>
        <mxCell id="vTKfl69OnQjGCs4uk_6M-8" style="edgeStyle=orthogonalEdgeStyle;rounded=0;orthogonalLoop=1;jettySize=auto;html=1;entryX=0.5;entryY=0;entryDx=0;entryDy=0;" edge="1" parent="1" source="vTKfl69OnQjGCs4uk_6M-3" target="vTKfl69OnQjGCs4uk_6M-4">
          <mxGeometry relative="1" as="geometry" />
        </mxCell>
        <mxCell id="vTKfl69OnQjGCs4uk_6M-15" style="edgeStyle=orthogonalEdgeStyle;rounded=0;orthogonalLoop=1;jettySize=auto;html=1;entryX=0;entryY=0.5;entryDx=0;entryDy=0;dashed=1;" edge="1" parent="1" source="vTKfl69OnQjGCs4uk_6M-3" target="vTKfl69OnQjGCs4uk_6M-12">
          <mxGeometry relative="1" as="geometry" />
        </mxCell>
        <mxCell id="vTKfl69OnQjGCs4uk_6M-3" value="二审" style="rounded=0;whiteSpace=wrap;html=1;" vertex="1" parent="1">
          <mxGeometry x="300" y="320" width="120" height="60" as="geometry" />
        </mxCell>
        <mxCell id="vTKfl69OnQjGCs4uk_6M-9" style="edgeStyle=orthogonalEdgeStyle;rounded=0;orthogonalLoop=1;jettySize=auto;html=1;entryX=0.5;entryY=0;entryDx=0;entryDy=0;" edge="1" parent="1" source="vTKfl69OnQjGCs4uk_6M-4" target="vTKfl69OnQjGCs4uk_6M-5">
          <mxGeometry relative="1" as="geometry" />
        </mxCell>
        <mxCell id="vTKfl69OnQjGCs4uk_6M-16" style="edgeStyle=orthogonalEdgeStyle;rounded=0;orthogonalLoop=1;jettySize=auto;html=1;entryX=0;entryY=0.5;entryDx=0;entryDy=0;dashed=1;" edge="1" parent="1" source="vTKfl69OnQjGCs4uk_6M-4" target="vTKfl69OnQjGCs4uk_6M-13">
          <mxGeometry relative="1" as="geometry" />
        </mxCell>
        <mxCell id="vTKfl69OnQjGCs4uk_6M-4" value="三审" style="rounded=0;whiteSpace=wrap;html=1;" vertex="1" parent="1">
          <mxGeometry x="300" y="440" width="120" height="60" as="geometry" />
        </mxCell>
        <mxCell id="vTKfl69OnQjGCs4uk_6M-5" value="审核通过" style="rounded=0;whiteSpace=wrap;html=1;" vertex="1" parent="1">
          <mxGeometry x="300" y="570" width="120" height="60" as="geometry" />
        </mxCell>
        <mxCell id="vTKfl69OnQjGCs4uk_6M-11" value="只能首推一审角色操作" style="ellipse;whiteSpace=wrap;html=1;" vertex="1" parent="1">
          <mxGeometry x="520" y="200" width="120" height="80" as="geometry" />
        </mxCell>
        <mxCell id="vTKfl69OnQjGCs4uk_6M-12" value="只能首推二审角色操作" style="ellipse;whiteSpace=wrap;html=1;" vertex="1" parent="1">
          <mxGeometry x="520" y="310" width="120" height="80" as="geometry" />
        </mxCell>
        <mxCell id="vTKfl69OnQjGCs4uk_6M-13" value="只能首推三审角色操作" style="ellipse;whiteSpace=wrap;html=1;" vertex="1" parent="1">
          <mxGeometry x="520" y="430" width="120" height="80" as="geometry" />
        </mxCell>
        <mxCell id="vTKfl69OnQjGCs4uk_6M-18" value="合同准备" style="rounded=0;whiteSpace=wrap;html=1;" vertex="1" parent="1">
          <mxGeometry x="110" y="710" width="120" height="60" as="geometry" />
        </mxCell>
        <mxCell id="vTKfl69OnQjGCs4uk_6M-19" value="导出合同模板" style="rounded=0;whiteSpace=wrap;html=1;" vertex="1" parent="1">
          <mxGeometry x="110" y="820" width="120" height="60" as="geometry" />
        </mxCell>
        <mxCell id="vTKfl69OnQjGCs4uk_6M-20" value="待上传" style="rounded=0;whiteSpace=wrap;html=1;" vertex="1" parent="1">
          <mxGeometry x="110" y="930" width="120" height="60" as="geometry" />
        </mxCell>
      </root>
    </mxGraphModel>
  </diagram>
</mxfile>
